<svg width="34" height="34" viewBox="0 0 34 34" fill="none" xmlns="http://www.w3.org/2000/svg">
<path d="M9.83758 22.3573C12.2803 24.8 15.4415 26.3499 18.7958 26.7625C19.3992 28.9622 21.3359 30.7099 23.5379 31.0726C23.6506 31.0914 23.7661 31.086 23.8765 31.0568C23.987 31.0275 24.0899 30.9751 24.1785 30.903C25.6024 29.753 26.3622 28.0202 26.2929 26.2044C28.1082 26.2743 29.8403 25.5151 30.9892 24.0923C31.0614 24.0037 31.1138 23.9006 31.143 23.79C31.1721 23.6794 31.1773 23.5639 31.1582 23.4511C30.7949 21.2485 29.0456 19.3112 26.8487 18.7096C26.4356 15.3547 24.8856 12.1935 22.4435 9.75137C18.2429 5.55073 12.0568 4.12511 6.6838 6.12086C6.57475 6.1614 6.47572 6.22497 6.39345 6.30724C6.31118 6.38951 6.24761 6.48854 6.20707 6.59759C4.21132 11.9706 5.63694 18.1567 9.83758 22.3573Z" fill="#DCB481"/>
<path d="M17.2866 12.6163L12.7026 17.2003C12.5507 17.3523 12.3446 17.4376 12.1296 17.4376C11.9147 17.4376 11.7086 17.3523 11.5566 17.2003C11.4047 17.0483 11.3193 16.8422 11.3193 16.6273C11.3193 16.4124 11.4047 16.2063 11.5566 16.0543L16.1406 11.4703C16.2926 11.3184 16.4987 11.233 16.7136 11.233C16.9285 11.233 17.1346 11.3184 17.2866 11.4703C17.4386 11.6223 17.524 11.8284 17.524 12.0433C17.524 12.2582 17.4386 12.4644 17.2866 12.6163ZM12.7026 10.3243C13.0066 10.6283 13.1773 11.0405 13.1773 11.4703C13.1773 11.9002 13.0066 12.3124 12.7026 12.6163C12.3987 12.9203 11.9865 13.091 11.5566 13.091C11.1268 13.091 10.7146 12.9203 10.4107 12.6163C10.1067 12.3124 9.93597 11.9002 9.93597 11.4703C9.93597 11.0405 10.1067 10.6283 10.4107 10.3243C10.7146 10.0204 11.1268 9.84965 11.5566 9.84965C11.9865 9.84965 12.3987 10.0204 12.7026 10.3243Z" fill="#977703"/>
</svg>
